<?xml version="1.0" encoding="UTF-8"?>
<svg width="24px" height="24px" viewBox="0 0 24 24" version="1.1" xmlns="http://www.w3.org/2000/svg" xmlns:xlink="http://www.w3.org/1999/xlink">
    <!-- Generator: sketchtool 42 (36781) - http://www.bohemiancoding.com/sketch -->
    <title>FBAFA01C-947C-46EA-BC10-6DCFF2F1E538</title>
    <desc>Created with sketchtool.</desc>
    <defs></defs>
    <g id="Footer" stroke="none" stroke-width="1" fill="none" fill-rule="evenodd">
        <g id="Footer---1920" transform="translate(-1362.000000, -584.000000)">
            <g id="Compliance" transform="translate(873.000000, 558.000000)">
                <g id="18+-Logo" transform="translate(489.000000, 26.000000)">
                    <ellipse id="Ellisse_1" fill="#DF0000" cx="12.1241558" cy="11.1584416" rx="11.1241558" ry="11.1584416"></ellipse>
                    <path d="M11.9033766,23.8753247 C5.32878553,23.8753247 0,18.5301153 0,11.9376623 C0,5.34520936 5.32878553,0 11.9033766,0 C18.4779677,0 23.8067532,5.34520936 23.8067532,11.9376623 C23.8067532,18.5301153 18.4779677,23.8753247 11.9033766,23.8753247 Z M11.9033766,22.3168831 C17.6161888,22.3168831 22.2483117,17.6704836 22.2483117,11.9376623 C22.2483117,6.2048411 17.6161888,1.55844156 11.9033766,1.55844156 C6.19056446,1.55844156 1.55844156,6.2048411 1.55844156,11.9376623 C1.55844156,17.6704836 6.19056446,22.3168831 11.9033766,22.3168831 Z" id="Ellisse_1-2" fill="#FFFFFF" fill-rule="nonzero"></path>
                    <path d="M7.79479231,14.8785047 L6.57532548,14.8785047 L6.57532548,9.92990654 C6.12977665,10.3785069 5.60467341,10.7102793 5,10.9252336 L5,9.73364486 C5.31824916,9.62149477 5.6639783,9.40888007 6.03719777,9.09579439 C6.41041724,8.78270871 6.66645932,8.41744757 6.80533168,8 L7.79479231,8 L7.79479231,14.8785047 Z M10.6633602,11.182243 C10.3480042,11.0389401 10.1187236,10.8419016 9.97551147,10.5911215 C9.83229935,10.3403414 9.76069436,10.0654221 9.76069436,9.76635514 C9.76069436,9.25544916 9.9263261,8.833335 10.2575945,8.5 C10.588863,8.166665 11.05972,8 11.6701798,8 C12.2748532,8 12.7442637,8.166665 13.0784253,8.5 C13.4125869,8.833335 13.5796652,9.25544916 13.5796652,9.76635514 C13.5796652,10.0841137 13.5029973,10.3668212 13.349659,10.614486 C13.1963208,10.8621508 12.9807825,11.0514012 12.7030378,11.182243 C13.0560051,11.3348917 13.324343,11.5576309 13.5080595,11.8504673 C13.6917761,12.1433036 13.783633,12.4813065 13.783633,12.864486 C13.783633,13.4968879 13.5963028,14.0109014 13.2216367,14.4065421 C12.8469706,14.8021827 12.3486289,15 11.7265964,15 C11.1479616,15 10.6662553,14.8364502 10.2814631,14.5093458 C9.82723476,14.123051 9.60012399,13.5934613 9.60012399,12.9205607 C9.60012399,12.5498424 9.68547135,12.2095031 9.85616863,11.8995327 C10.0268659,11.5895623 10.2959271,11.3504681 10.6633602,11.182243 Z M10.9150651,9.85981308 C10.9150651,10.1214966 10.983777,10.3255444 11.1212027,10.4719626 C11.2586285,10.6183808 11.441619,10.6915888 11.6701798,10.6915888 C11.9016337,10.6915888 12.0867941,10.617602 12.2256665,10.4696262 C12.3645388,10.3216504 12.433974,10.1168237 12.433974,9.85514019 C12.433974,9.60903304 12.3652621,9.41199451 12.2278363,9.26401869 C12.0904106,9.11604287 11.9088666,9.04205607 11.683199,9.04205607 C11.4488519,9.04205607 11.262245,9.11682168 11.1233726,9.26635514 C10.9845002,9.4158886 10.9150651,9.61370593 10.9150651,9.85981308 Z M10.8022319,12.7943925 C10.8022319,13.155765 10.8883025,13.4376937 11.0604464,13.6401869 C11.2325902,13.8426801 11.4474052,13.9439252 11.7048977,13.9439252 C11.9566039,13.9439252 12.1649093,13.8465742 12.3298202,13.6518692 C12.4947311,13.4571641 12.5771854,13.1760143 12.5771854,12.8084112 C12.5771854,12.4875373 12.4932846,12.2297518 12.3254805,12.0350467 C12.1576764,11.8403417 11.9450313,11.7429907 11.6875387,11.7429907 C11.3895418,11.7429907 11.167494,11.8535814 11.0213887,12.0747664 C10.8752834,12.2959513 10.8022319,12.5358243 10.8022319,12.7943925 Z M16.2182269,13.8925234 L16.2182269,12.1121495 L14.5517669,12.1121495 L14.5517669,10.8831776 L16.2182269,10.8831776 L16.2182269,9.10280374 L17.3292002,9.10280374 L17.3292002,10.8831776 L19,10.8831776 L19,12.1121495 L17.3292002,12.1121495 L17.3292002,13.8925234 L16.2182269,13.8925234 Z" id="18+" fill="#FFFFFF"></path>
                </g>
            </g>
        </g>
    </g>
</svg>