<?xml version="1.0" encoding="UTF-8"?>
<svg width="88px" height="24px" viewBox="0 0 88 24" version="1.1" xmlns="http://www.w3.org/2000/svg" xmlns:xlink="http://www.w3.org/1999/xlink">
    <!-- Generator: sketchtool 42 (36781) - http://www.bohemiancoding.com/sketch -->
    <title>47B3B57D-6F98-4845-B087-5664540BDF51</title>
    <desc>Created with sketchtool.</desc>
    <defs></defs>
    <g id="Footer" stroke="none" stroke-width="1" fill="none" fill-rule="evenodd">
        <g id="Footer---1920" transform="translate(-1130.000000, -584.000000)">
            <g id="Compliance" transform="translate(873.000000, 558.000000)">
                <g id="Gambling-Commission-Logo" transform="translate(257.000000, 26.000000)">
                    <path d="M9.24506335,10.0457143 L9.24506335,10.0457143 C8.6952564,10.2514286 8.14544945,10.3885714 7.56127957,10.4571429 C6.90838381,10.56 6.25548806,10.5942857 5.60259231,10.5942857 C4.15934906,10.6285714 2.78483169,10.1142857 1.68521779,9.22285714 C0.619966825,8.33142857 0.00143400619,6.99428571 0.00143400619,5.62285714 C-0.0329289282,4.08 0.551240956,2.60571429 1.65085486,1.54285714 C2.68174289,0.548571429 4.193712,0 5.98058459,0 C6.5991174,0 7.18328729,0.0685714286 7.80182011,0.171428571 C8.31726412,0.274285714 8.7983452,0.411428571 9.27942628,0.651428571 L8.6952564,2.22857143 C8.42035293,2.02285714 8.11108652,1.85142857 7.76745717,1.71428571 C7.14892435,1.50857143 6.53039154,1.40571429 5.87749578,1.40571429 C4.81224482,1.33714286 3.74699385,1.71428571 2.9910093,2.43428571 C2.30375061,3.22285714 1.92575833,4.21714286 1.9944842,5.28 C1.96012126,6.37714286 2.37247648,7.44 3.12846103,8.22857143 C3.81571972,8.91428571 4.74351895,9.29142857 5.70568111,9.29142857 C6.01494752,9.29142857 6.32421393,9.29142857 6.5991174,9.25714286 C6.83965794,9.22285714 7.08019848,9.18857143 7.28637609,9.12 C7.32073903,8.84571429 7.32073903,8.43428571 7.35510196,8.05714286 C7.38946489,7.68 7.35510196,7.26857143 7.35510196,6.99428571 L7.35510196,6.06857143 C7.35510196,5.79428571 7.32073903,5.52 7.28637609,5.28 L9.27942628,5.28 C9.24506335,5.58857143 9.24506335,5.89714286 9.24506335,6.24 L9.24506335,7.30285714 L9.24506335,8.67428571 L9.24506335,10.0457143 L9.24506335,10.0457143 L9.24506335,10.0457143 Z" id="Shape" fill="#B0B0B0"></path>
                    <path d="M13.6081081,6.10285714 L13.6081081,6.10285714 C13.7111969,5.86285714 13.8142857,5.58857143 13.9517375,5.31428571 C14.0891892,5.04 14.192278,4.76571429 14.2953668,4.52571429 C14.5015444,4.04571429 14.6733591,3.6 14.8451737,3.15428571 C15.0169884,2.70857143 15.1888031,2.29714286 15.3262548,1.88571429 C15.5324324,2.53714286 15.772973,3.22285714 16.0135135,3.94285714 C16.2540541,4.66285714 16.5633205,5.38285714 16.8382239,6.13714286 L13.6081081,6.10285714 L13.6081081,6.10285714 Z M16.4258687,0 L14.6389961,0 C13.9861004,1.54285714 13.127027,3.49714286 12.2679537,5.38285714 C11.4088803,7.26857143 10.6185328,9.08571429 10,10.3542857 L11.8899614,10.3542857 C11.9243243,10.1828571 12.0274131,9.97714286 12.096139,9.80571429 C12.1648649,9.63428571 12.2679537,9.39428571 12.3366795,9.18857143 C12.4741313,8.91428571 12.5772201,8.64 12.7146718,8.36571429 C12.8521236,8.09142857 12.9552124,7.78285714 13.0583012,7.47428571 L17.2849421,7.47428571 C17.3880309,7.74857143 17.4911197,8.05714286 17.6285714,8.33142857 C17.7660232,8.60571429 17.869112,8.91428571 17.9722008,9.18857143 L18.1783784,9.77142857 C18.2471042,9.97714286 18.3158301,10.1485714 18.384556,10.32 L20.5494208,10.32 C19.8277992,8.74285714 19.0718147,6.89142857 18.3158301,5.04 C17.5598456,3.18857143 16.9413127,1.44 16.4258687,0 L16.4258687,0 Z" id="Shape" fill="#B0B0B0"></path>
                    <path d="M30.930888,10.2857143 L30.930888,10.2857143 C30.930888,8.91428571 30.8965251,7.54285714 30.8621622,6.17142857 C30.8277992,4.8 30.7590734,3.49714286 30.6903475,2.29714286 L30.3810811,3.08571429 L30.0374517,4.01142857 C29.6938224,4.97142857 29.2814672,6.10285714 28.869112,7.23428571 C28.4567568,8.36571429 28.0787645,9.42857143 27.7351351,10.2857143 L26.0513514,10.2857143 C25.6046332,8.98285714 25.0891892,7.50857143 24.642471,6.13714286 C24.1957529,4.76571429 23.7490347,3.39428571 23.3710425,2.33142857 C23.2335907,3.53142857 23.096139,4.86857143 22.9930502,6.24 C22.8899614,7.61142857 22.7868726,8.98285714 22.7525097,10.32 L21,10.32 C21.2749035,8.57142857 21.4467181,6.89142857 21.5841699,5.17714286 C21.7216216,3.46285714 21.8590734,1.74857143 21.9277992,0 L24.2988417,0 C24.5393822,0.822857143 24.8486486,1.71428571 25.1579151,2.64 C25.4671815,3.56571429 25.8108108,4.45714286 26.1200772,5.34857143 C26.2918919,5.89714286 26.4980695,6.41142857 26.6698842,6.89142857 C26.8416988,7.37142857 27.0135135,7.85142857 27.1509653,8.33142857 C27.6320463,7.13142857 28.1818533,5.69142857 28.6972973,4.25142857 C29.2127413,2.81142857 29.7281853,1.33714286 30.1749035,0.0342857143 L32.4428571,0.0342857143 C32.4428571,1.50857143 32.511583,3.22285714 32.6146718,5.00571429 C32.7177606,6.78857143 32.8552124,8.60571429 32.9926641,10.2857143 L30.930888,10.2857143 L30.930888,10.2857143 Z" id="Shape" fill="#B0B0B0"></path>
                    <path d="M36.9552124,8.88 L35.9243243,8.88 C35.8899614,8.33142857 35.8899614,7.78285714 35.8899614,7.23428571 L35.8899614,5.58857143 L36.9208494,5.58857143 C37.642471,5.55428571 38.3640927,5.69142857 39.0169884,6 C39.4637066,6.24 39.73861,6.72 39.7042471,7.23428571 C39.73861,7.71428571 39.4980695,8.19428571 39.1200772,8.46857143 C38.6733591,8.74285714 37.9861004,8.88 36.9552124,8.88 M35.9586873,1.33714286 L35.9586873,1.33714286 C36.1305019,1.30285714 36.2679537,1.30285714 36.4397683,1.26857143 L36.9552124,1.26857143 C37.5737452,1.23428571 38.2266409,1.37142857 38.7764479,1.64571429 C39.1544402,1.88571429 39.3606178,2.29714286 39.3262548,2.74285714 C39.3606178,3.18857143 39.1200772,3.63428571 38.7420849,3.87428571 C38.192278,4.18285714 37.5393822,4.32 36.9208494,4.25142857 L35.9586873,4.25142857 L35.9586873,2.70857143 C35.9586873,2.19428571 35.8899614,1.78285714 35.9586873,1.33714286 M39.257529,4.73142857 L39.257529,4.73142857 C39.772973,4.59428571 40.2540541,4.28571429 40.5976834,3.87428571 C40.9413127,3.49714286 41.1131274,3.01714286 41.1474903,2.50285714 C41.1474903,1.74857143 40.7694981,1.02857143 40.0822394,0.651428571 C39.3949807,0.24 38.3984556,0 37.16139,0 L34,0 C34.0343629,0.994285714 34.0687259,1.81714286 34.1030888,2.60571429 C34.1374517,3.39428571 34.1030888,4.21714286 34.1030888,5.24571429 L34.1030888,7.74857143 C34.1030888,8.50285714 34.0687259,9.29142857 34,10.2514286 L37.1957529,10.2514286 C38.6733591,10.2514286 39.772973,9.97714286 40.4945946,9.46285714 C41.2162162,8.94857143 41.6285714,8.09142857 41.5942085,7.2 C41.5942085,6.61714286 41.3880309,6.03428571 40.9756757,5.62285714 C40.4945946,5.14285714 39.9104247,4.83428571 39.257529,4.73142857" id="Shape" fill="#B0B0B0"></path>
                    <path d="M43.9243243,7.64571429 L43.9243243,7.64571429 L43.9243243,8.26285714 L43.9243243,8.88 L46.4328185,8.88 C47.257529,8.88 48.0135135,8.84571429 48.5633205,8.81142857 L48.0135135,10.2514286 L42,10.2514286 C42.0343629,9.29142857 42.0687259,8.53714286 42.1030888,7.74857143 C42.1374517,6.96 42.1030888,6.20571429 42.1030888,5.24571429 L42.1030888,2.60571429 C42.1030888,1.81714286 42.0343629,0.994285714 42,0 L43.9930502,0 C43.9930502,0.342857143 43.9930502,0.685714286 43.9586873,0.994285714 C43.9243243,1.30285714 43.9586873,1.57714286 43.9243243,1.85142857 C43.9243243,2.36571429 43.8899614,2.88 43.8899614,3.46285714 C43.8899614,4.04571429 43.8555985,4.62857143 43.8555985,5.28 L43.8555985,6.51428571 C43.8555985,6.89142857 43.8899614,7.26857143 43.9243243,7.64571429" id="Shape" fill="#B0B0B0"></path>
                    <path d="M50,10.2514286 L50,10.2514286 C50.0343629,9.29142857 50.0687259,8.53714286 50.1030888,7.74857143 C50.1374517,6.96 50.1030888,6.20571429 50.1030888,5.24571429 L50.1030888,2.60571429 C50.1030888,1.81714286 50.0687259,0.994285714 50,0 L51.9930502,0 L51.9930502,0.72 L51.9930502,1.37142857 C51.9930502,2.02285714 51.9586873,2.60571429 51.9586873,3.22285714 C51.9586873,3.84 51.9243243,4.49142857 51.9243243,5.28 C51.9243243,6 51.9243243,6.61714286 51.9586873,7.2 C51.9930502,7.78285714 51.9930502,8.33142857 51.9930502,8.94857143 L51.9930502,9.56571429 L51.9930502,10.2514286 L50,10.2514286 L50,10.2514286 Z" id="Shape" fill="#B0B0B0"></path>
                    <path d="M61.9343629,0.0342857143 L61.9343629,0.0342857143 C61.9,1.02857143 61.9,1.85142857 61.8656371,2.64 C61.8312741,3.42857143 61.8656371,4.25142857 61.8656371,5.28 L61.8656371,7.78285714 C61.8656371,8.53714286 61.9,9.32571429 61.9343629,10.2857143 L60.1474903,10.2857143 C59.2196911,8.84571429 58.223166,7.37142857 57.2953668,5.96571429 C56.3675676,4.56 55.4741313,3.29142857 54.7525097,2.29714286 L54.7525097,6.54857143 C54.7525097,7.74857143 54.7868726,8.91428571 54.8212355,10.2857143 L53,10.2857143 C53.0343629,9.32571429 53.0687259,8.57142857 53.1030888,7.78285714 C53.1374517,6.99428571 53.1030888,6.24 53.1030888,5.28 L53.1030888,2.64 C53.1030888,1.85142857 53.0687259,1.02857143 53.0343629,6.09036631e-16 L55.096139,6.09036631e-16 C56.0926641,1.33714286 57.0891892,2.70857143 57.9826255,3.97714286 C58.8760618,5.24571429 59.6664093,6.41142857 60.2505792,7.33714286 L60.2505792,3.42857143 C60.2505792,2.26285714 60.2162162,1.2 60.1474903,0 L61.9343629,0.0342857143 L61.9343629,0.0342857143 Z" id="Shape" fill="#B0B0B0"></path>
                    <path d="M72.2794263,10.0457143 L72.2794263,10.0457143 C71.7296193,10.2514286 71.1798124,10.3885714 70.5956425,10.4571429 C69.9427467,10.56 69.289851,10.5942857 68.6369552,10.5942857 C67.193712,10.6285714 65.8191946,10.1142857 64.6852178,9.22285714 C63.6199668,8.33142857 63.001434,7.02857143 63.001434,5.62285714 C62.9670711,4.08 63.551241,2.60571429 64.6508549,1.54285714 C65.6817429,0.548571429 67.193712,0 68.9805846,0 C69.5991174,0 70.1832873,0.0685714286 70.7674572,0.171428571 C71.2829012,0.274285714 71.7639823,0.411428571 72.2450633,0.651428571 L71.6608935,2.22857143 C71.3516271,1.95428571 70.9736348,1.78285714 70.5612796,1.68 C70.0114726,1.50857143 69.4616657,1.44 68.9118587,1.44 C67.6404301,1.44 66.643905,1.81714286 65.9910093,2.50285714 C65.3037506,3.29142857 64.9257583,4.28571429 64.9944842,5.31428571 C64.9601213,6.41142857 65.3724765,7.47428571 66.0940981,8.26285714 C66.7813568,8.94857143 67.709156,9.32571429 68.6713182,9.32571429 C68.9805846,9.32571429 69.2554881,9.32571429 69.5647545,9.29142857 C69.805295,9.25714286 70.0114726,9.22285714 70.2176502,9.15428571 C70.2520132,8.88 70.2520132,8.46857143 70.2863761,8.09142857 C70.320739,7.71428571 70.2863761,7.30285714 70.2863761,7.02857143 L70.2863761,6.10285714 C70.2863761,5.82857143 70.2520132,5.55428571 70.2176502,5.31428571 L72.2450633,5.31428571 C72.2107004,5.62285714 72.2107004,5.93142857 72.2107004,6.27428571 L72.2107004,7.33714286 L72.2107004,8.70857143 C72.2107004,9.22285714 72.2450633,9.6 72.2794263,10.0457143 L72.2794263,10.0457143 L72.2794263,10.0457143 Z" id="Shape" fill="#B0B0B0"></path>
                    <path d="M0.00517612089,18.6228571 L0.00517612089,18.6228571 C-0.0635497478,17.08 0.554983071,15.5714286 1.6889599,14.5085714 C2.7885738,13.5142857 4.23181705,13 5.74378616,13 C6.32795604,13 6.87776299,13.0342857 7.46193288,13.1371429 C7.90865102,13.2057143 8.35536917,13.3428571 8.80208732,13.5485714 L8.1835545,15.1942857 C7.97737689,14.9542857 7.66811048,14.7485714 7.35884407,14.6457143 C6.84340006,14.44 6.32795604,14.3714286 5.77814909,14.3714286 C4.781624,14.3371429 3.81946184,14.7142857 3.13220315,15.4 C2.41058153,16.1885714 2.06695218,17.2171429 2.10131512,18.28 C2.06695218,19.3428571 2.44494446,20.3371429 3.16656608,21.1257143 C3.85382477,21.8114286 4.81598693,22.2228571 5.81251203,22.1885714 C6.25923017,22.1885714 6.70594832,22.1542857 7.15266647,22.0171429 C7.56502168,21.9142857 7.97737689,21.7085714 8.32100624,21.4685714 L8.87081319,22.7714286 C8.38973211,23.0457143 7.87428809,23.2514286 7.32448114,23.3542857 C6.70594832,23.4914286 6.0874155,23.5257143 5.46888268,23.5257143 C4.06000238,23.56 2.685485,23.08 1.62023404,22.1542857 C0.554983071,21.2628571 0.00517612089,19.96 0.00517612089,18.6228571" id="Shape" fill="#FFFFFF"></path>
                    <path d="M14.4652261,22.2289429 L14.4652261,22.2289429 C13.5030639,22.2632286 12.6096276,21.8518001 11.9910948,21.1318001 C10.7883921,19.4175143 10.7883921,17.1546572 11.9910948,15.4403715 C13.2281605,14.0689429 15.3586624,14.0003715 16.6988168,15.2346572 C16.7675427,15.3032286 16.8362686,15.3718001 16.9049944,15.4403715 C17.5578902,16.2632286 17.9015195,17.2575143 17.8671566,18.2860858 C17.9015195,19.3146572 17.5922531,20.3432286 16.9393574,21.1318001 C16.3208245,21.8518001 15.4273883,22.2632286 14.4652261,22.2289429 M14.4652261,13.0060858 L14.4652261,13.0060858 C13.0219828,12.9718001 11.6131025,13.5203715 10.5822145,14.4803715 C9.55132648,15.5432286 8.96715659,16.9489429 9.00151953,18.4575143 C8.96715659,19.8632286 9.51696354,21.2003715 10.5134886,22.1603715 C11.6131025,23.1203715 13.0219828,23.6003715 14.4308632,23.5318001 C15.8741064,23.5660858 17.2486238,23.0175143 18.2795118,22.0575143 C19.3447628,21.0289429 19.8945697,19.5889429 19.8602068,18.1146572 C19.8945697,16.7089429 19.3447628,15.3718001 18.3482377,14.3775143 C17.3173496,13.4518001 15.9084693,12.9375143 14.4652261,13.0060858" id="Shape" fill="#FFFFFF"></path>
                    <path d="M29.965251,23.2514286 L29.965251,23.2514286 C29.965251,21.88 29.930888,20.5085714 29.8965251,19.1371429 C29.8621622,17.7657143 29.7934363,16.4628571 29.7247104,15.2628571 C29.6559846,15.5028571 29.5528958,15.7771429 29.4498069,16.0514286 C29.3467181,16.3257143 29.2436293,16.6342857 29.1061776,16.9428571 C28.7625483,17.9371429 28.3501931,19.0685714 27.9378378,20.1657143 C27.5254826,21.2628571 27.1474903,22.36 26.803861,23.2514286 L25.0513514,23.2514286 C24.6046332,21.9485714 24.0891892,20.4742857 23.642471,19.1028571 C23.1957529,17.7314286 22.7490347,16.36 22.3710425,15.2971429 C22.2335907,16.4971429 22.1305019,17.8342857 21.9930502,19.1714286 C21.8555985,20.5085714 21.7868726,21.9142857 21.7525097,23.2514286 L20,23.2514286 C20.2749035,21.5028571 20.4467181,19.8228571 20.5841699,18.1085714 C20.7216216,16.3942857 20.8247104,14.7142857 20.8934363,13 L23.2644788,13 C23.5050193,13.8571429 23.8142857,14.7485714 24.1235521,15.64 C24.4328185,16.5314286 24.7764479,17.4571429 25.0857143,18.3485714 C25.2918919,18.8971429 25.4637066,19.4114286 25.6355212,19.8914286 C25.8073359,20.3714286 25.9791506,20.8514286 26.1166023,21.3314286 C26.5976834,20.1314286 27.1474903,18.6914286 27.6629344,17.2514286 C28.1783784,15.8114286 28.6938224,14.3028571 29.1749035,13 L31.4428571,13 C31.4428571,14.4742857 31.511583,16.1885714 31.6146718,17.9714286 C31.7177606,19.7542857 31.8552124,21.5714286 31.9926641,23.2514286 L29.965251,23.2514286 L29.965251,23.2514286 Z" id="Shape" fill="#FFFFFF"></path>
                    <path d="M42.965251,23.2857143 L42.965251,23.2857143 C42.965251,21.9142857 42.930888,20.5428571 42.8965251,19.1714286 C42.8621622,17.8 42.7934363,16.4971429 42.7247104,15.2971429 L42.415444,16.0857143 L42.0718147,16.9771429 C41.7281853,17.9714286 41.3158301,19.1028571 40.9034749,20.2 C40.4911197,21.2971429 40.1131274,22.3942857 39.803861,23.2514286 L38.0169884,23.2514286 C37.5702703,21.9485714 37.0891892,20.4742857 36.6081081,19.1028571 C36.127027,17.7314286 35.7146718,16.36 35.3710425,15.2971429 C35.2335907,16.4971429 35.096139,17.8342857 34.9930502,19.1714286 C34.8899614,20.5085714 34.7868726,21.9142857 34.7181467,23.2514286 L33,23.2514286 C33.2749035,21.5028571 33.4467181,19.8228571 33.5841699,18.1085714 C33.7216216,16.3942857 33.8247104,14.7142857 33.8934363,13 L36.2644788,13 C36.5050193,13.8571429 36.8142857,14.7485714 37.0891892,15.64 C37.3640927,16.5314286 37.707722,17.4571429 38.0513514,18.3485714 C38.257529,18.8971429 38.4293436,19.4114286 38.6011583,19.8914286 C38.772973,20.3714286 38.9447876,20.8514286 39.0822394,21.3314286 C39.5633205,20.1314286 40.0787645,18.6914286 40.6285714,17.2514286 C41.1783784,15.8114286 41.6594595,14.3028571 42.1061776,13 L44.3741313,13 C44.3741313,14.4742857 44.4428571,16.1885714 44.5459459,17.9714286 C44.6490347,19.7542857 44.7864865,21.5714286 44.9239382,23.2514286 L42.965251,23.2857143 L42.965251,23.2857143 Z" id="Shape" fill="#FFFFFF"></path>
                    <path d="M46,23.2857143 L46,23.2857143 C46.0343629,22.36 46.0687259,21.6057143 46.1030888,20.8171429 C46.1374517,20.0285714 46.1030888,19.2742857 46.1030888,18.3142857 L46.1030888,15.64 C46.1030888,14.8171429 46.0687259,14.0285714 46,13 L47.9930502,13 C47.9586873,14.0285714 47.9243243,14.8171429 47.8899614,15.64 C47.8555985,16.4628571 47.8899614,17.2857143 47.8899614,18.3142857 L47.8899614,20.8171429 C47.8899614,21.6057143 47.9243243,22.36 47.9930502,23.2857143 L46,23.2857143 L46,23.2857143 Z" id="Shape" fill="#FFFFFF"></path>
                    <path d="M55.3915058,15.06 L55.3915058,15.06 C55.1166023,14.82 54.8073359,14.6485714 54.4980695,14.5457143 C54.0857143,14.3742857 53.6389961,14.3057143 53.1579151,14.3057143 C52.676834,14.2714286 52.16139,14.4085714 51.7490347,14.6485714 C51.4397683,14.8542857 51.2679537,15.1971429 51.2679537,15.5742857 C51.2679537,15.8828571 51.3710425,16.1914286 51.5772201,16.3971429 C51.9552124,16.74 52.4019305,17.0142857 52.8830116,17.1857143 L53.3984556,17.4257143 L53.9138996,17.6657143 C54.5667954,17.9057143 55.1509653,18.3171429 55.6320463,18.8657143 C56.0100386,19.3457143 56.1818533,19.9628571 56.1474903,20.58 C56.1818533,21.4714286 55.7694981,22.2942857 55.0822394,22.8428571 C54.2918919,23.3914286 53.3297297,23.6314286 52.3675676,23.5971429 C51.7490347,23.5971429 51.1648649,23.5628571 50.580695,23.4257143 C50.030888,23.3228571 49.515444,23.1514286 49,22.9457143 L49.5841699,21.4371429 C49.9965251,21.7114286 50.4432432,21.9171429 50.8899614,22.0542857 C51.3710425,22.2257143 51.8521236,22.2942857 52.3675676,22.2942857 C52.8830116,22.3285714 53.3984556,22.1914286 53.8451737,21.8828571 C54.1200772,21.6085714 54.2918919,21.2314286 54.257529,20.8542857 C54.257529,20.5114286 54.1200772,20.1685714 53.8795367,19.9285714 C53.5359073,19.62 53.1579151,19.3457143 52.7111969,19.1742857 L52.127027,18.9 C51.9208494,18.7971429 51.7146718,18.6942857 51.5428571,18.6257143 C50.9243243,18.3857143 50.3745174,18.0085714 49.9621622,17.4942857 C49.5841699,17.0485714 49.4123552,16.4657143 49.4467181,15.8828571 C49.4467181,15.06 49.8247104,14.3057143 50.4776062,13.8257143 C51.2679537,13.2428571 52.2301158,12.9685714 53.2266409,13.0028571 C53.7764479,13.0028571 54.3262548,13.0371429 54.8760618,13.14 C55.288417,13.2085714 55.6664093,13.3457143 56.0444015,13.5171429 L55.3915058,15.06 L55.3915058,15.06 Z" id="Shape" fill="#FFFFFF"></path>
                    <path d="M62.3571429,15.0257143 L62.3571429,15.0257143 C62.0822394,14.82 61.772973,14.6142857 61.4637066,14.5114286 C61.0513514,14.34 60.6046332,14.2714286 60.1579151,14.2714286 C59.676834,14.2371429 59.16139,14.3742857 58.7490347,14.6142857 C58.4397683,14.82 58.2679537,15.1628571 58.2679537,15.54 C58.2679537,15.8485714 58.3710425,16.1571429 58.5772201,16.3628571 C58.9552124,16.7057143 59.4019305,16.98 59.8830116,17.1514286 L60.3984556,17.3914286 L60.9138996,17.6314286 C61.5667954,17.8714286 62.1509653,18.2828571 62.6320463,18.8314286 C63.0100386,19.3114286 63.1818533,19.9285714 63.1474903,20.5457143 C63.1818533,21.4371429 62.7694981,22.26 62.0822394,22.8085714 C61.2918919,23.3571429 60.3640927,23.6314286 59.4019305,23.5971429 C58.7833977,23.5971429 58.1992278,23.5628571 57.580695,23.4257143 C57.030888,23.3228571 56.515444,23.1514286 56,22.9457143 L56.5841699,21.4371429 C56.9965251,21.7114286 57.4432432,21.9171429 57.8899614,22.0542857 C58.3710425,22.2257143 58.8521236,22.2942857 59.3675676,22.2942857 C59.8830116,22.3285714 60.3984556,22.1914286 60.8451737,21.8828571 C61.1200772,21.6085714 61.2918919,21.2314286 61.257529,20.8542857 C61.257529,20.5114286 61.1200772,20.1685714 60.8795367,19.9285714 C60.5359073,19.62 60.1579151,19.3457143 59.7111969,19.1742857 L59.127027,18.9 C58.9208494,18.7971429 58.7146718,18.6942857 58.5428571,18.6257143 C57.9243243,18.3857143 57.3745174,18.0085714 56.9621622,17.4942857 C56.5841699,17.0485714 56.4123552,16.4657143 56.4467181,15.8828571 C56.4467181,15.06 56.8247104,14.3057143 57.4776062,13.8257143 C58.2679537,13.2428571 59.2301158,12.9685714 60.2266409,13.0028571 C60.7764479,13.0028571 61.3262548,13.0371429 61.8760618,13.14 C62.288417,13.2085714 62.6664093,13.3457143 63.0444015,13.5171429 L62.3571429,15.0257143 L62.3571429,15.0257143 Z" id="Shape" fill="#FFFFFF"></path>
                    <path d="M65,23.2857143 L65,23.2857143 C65.0343629,22.36 65.0687259,21.6057143 65.1030888,20.8171429 C65.1374517,20.0285714 65.1030888,19.2742857 65.1030888,18.3142857 L65.1030888,15.64 C65.1030888,14.8171429 65.0687259,14.0285714 65,13 L66.9930502,13 C66.9586873,14.0285714 66.9243243,14.8171429 66.8899614,15.64 C66.8555985,16.4628571 66.8899614,17.2857143 66.8899614,18.3142857 L66.8899614,20.8171429 C66.8899614,21.6057143 66.9243243,22.36 66.9930502,23.2857143 L65,23.2857143 L65,23.2857143 Z" id="Shape" fill="#FFFFFF"></path>
                    <path d="M73.4308632,22.2289358 L73.4308632,22.2289358 C72.5030639,22.2632215 71.5752647,21.8517929 70.9910948,21.1317929 C69.7540292,19.4175072 69.7540292,17.1546501 70.9567319,15.4403643 C71.5752647,14.7203643 72.468701,14.3089358 73.4308632,14.3432215 C74.3586624,14.3089358 75.2520987,14.7203643 75.8706315,15.4060786 C76.5235272,16.2289358 76.8671566,17.2232215 76.8327937,18.2517929 C76.8671566,19.2803643 76.5578902,20.3089358 75.9049944,21.0975072 C75.2864616,21.8517929 74.3930253,22.2632215 73.4308632,22.2289358 M73.4308632,13.0060786 L73.4308632,13.0060786 C70.5443767,12.8689358 68.1046083,15.0975072 68.0015195,17.9775072 L68.0015195,18.4575072 C67.9671566,19.8632215 68.5169635,21.2003643 69.5134886,22.1603643 C70.6131025,23.1203643 72.0219828,23.6003643 73.4652261,23.5660786 C74.9084693,23.6003643 76.2829867,23.0517929 77.3482377,22.0917929 C78.3791257,21.0632215 78.9632956,19.6232215 78.9289327,18.1489358 C78.9632956,16.7432215 78.4134886,15.4060786 77.4169635,14.4117929 C76.2829867,13.4517929 74.8741064,12.9375072 73.4308632,13.0060786" id="Shape" fill="#FFFFFF"></path>
                    <path d="M87.8312741,13 L87.8312741,13 C87.7969112,14.0285714 87.7969112,14.8171429 87.7625483,15.64 C87.7281853,16.4628571 87.7625483,17.2857143 87.7625483,18.3142857 L87.7625483,20.8171429 C87.7625483,21.6057143 87.7969112,22.36 87.8312741,23.2857143 L86.1131274,23.2857143 C85.1509653,21.8457143 84.1544402,20.3714286 83.2266409,18.9657143 C82.2988417,17.56 81.4054054,16.2914286 80.6494208,15.2971429 L80.6494208,19.5828571 C80.6494208,20.8171429 80.6837838,21.9485714 80.7525097,23.2514286 L79,23.2514286 L79,22.9771429 C79,22.5314286 79.0343629,21.7771429 79.0687259,20.9542857 C79.1030888,20.1314286 79.1030888,19.1714286 79.1030888,18.3142857 C79.1030888,17.2857143 79.1030888,16.1885714 79.0687259,15.2628571 C79.0343629,14.3371429 79.0343629,13.5142857 79,13 L81.0274131,13 C82.0583012,14.3371429 83.0204633,15.7428571 83.9138996,17.0114286 C84.8073359,18.28 85.5633205,19.4457143 86.1818533,20.3714286 L86.1818533,16.4971429 C86.1818533,15.3314286 86.1474903,14.2342857 86.0787645,13 L87.8312741,13 L87.8312741,13 Z" id="Shape" fill="#FFFFFF"></path>
                </g>
            </g>
        </g>
    </g>
</svg>