<svg xmlns="http://www.w3.org/2000/svg" width="132" height="24" viewBox="0 0 132 24">
    <g fill="none" fill-rule="nonzero">
        <path fill="#35A8E0" d="M63.87 23.517H1.38a1.113 1.113 0 0 1-1.113-1.112V11.577c0-6.246 5.064-11.31 11.31-11.31H63.87c.615 0 1.113.498 1.113 1.113v21.027c0 .615-.498 1.113-1.113 1.113v-.003z"/>
        <path fill="#FFF" d="M63.87 23.787H1.38A1.38 1.38 0 0 1 0 22.407v-10.83C.008 5.183 5.191.003 11.585 0H63.87c.762 0 1.38.618 1.38 1.38v21.027a1.38 1.38 0 0 1-1.38 1.38zM11.585.537C5.487.54.542 5.48.535 11.577v10.828a.845.845 0 0 0 .842.842H63.87a.845.845 0 0 0 .843-.842V1.38a.845.845 0 0 0-.843-.843H11.585z"/>
        <path fill="#FFF" d="M22.09 11.05v8.682a.166.166 0 0 1-.165.166h-3.396a.166.166 0 0 1-.166-.166.166.166 0 0 0-.218-.156c-.34.11-.69.192-1.042.246a8.182 8.182 0 0 1-4.328-.494 7.852 7.852 0 0 1-2.676-1.775 7.745 7.745 0 0 1-1.764-2.665 8.24 8.24 0 0 1 0-6.084 7.72 7.72 0 0 1 1.764-2.676 7.852 7.852 0 0 1 2.676-1.775 8.14 8.14 0 0 1 6.095 0c.952.38 1.82.943 2.555 1.658a.166.166 0 0 1 0 .237l-2.397 2.397a.166.166 0 0 1-.229 0 4.178 4.178 0 0 0-1.33-.842 4.413 4.413 0 0 0-3.29 0 4.197 4.197 0 0 0-1.448.954 4.364 4.364 0 0 0 0 6.183c.369.373.803.674 1.282.89.464.209.962.335 1.47.373a4.54 4.54 0 0 0 1.502-.142 4.14 4.14 0 0 0 1.31-.608.166.166 0 0 0 .07-.137v-.559a.166.166 0 0 0-.166-.166h-2.894a.166.166 0 0 1-.166-.166V11.05c0-.092.075-.166.166-.166h6.62c.091 0 .166.074.166.166zM34.767 19.805l-.545-1.723a.166.166 0 0 0-.158-.115H29.23a.166.166 0 0 0-.156.112l-.58 1.73a.166.166 0 0 1-.156.111h-3.578a.166.166 0 0 1-.156-.218l5.37-15.764a.166.166 0 0 1 .156-.112h3.273c.072 0 .135.047.158.115l5.089 15.764a.166.166 0 0 1-.158.215h-3.546a.166.166 0 0 1-.18-.115zm-4.162-5.541h2.152a.166.166 0 0 0 .158-.216l-1.047-3.218a.166.166 0 0 0-.313 0l-1.091 3.218a.166.166 0 0 0 .152.216h-.01zM52.868 3.805h3.546a.166.166 0 0 1 .163.155l.925 15.785a.166.166 0 0 1-.164.175H53.96a.166.166 0 0 1-.164-.155l-.335-5.583a.166.166 0 0 0-.322-.044l-1.928 5.67a.166.166 0 0 1-.155.112h-3.47a.166.166 0 0 1-.155-.112l-2.065-5.962a.166.166 0 0 0-.321.044l-.377 5.87a.166.166 0 0 1-.163.155h-3.396a.166.166 0 0 1-.163-.175l1.009-15.785a.166.166 0 0 1 .163-.156h3.546c.07 0 .132.046.155.112l3.333 9.524a.166.166 0 0 0 .31 0l3.252-9.519a.166.166 0 0 1 .155-.111z"/>
        <path fill="#1D1D1B" d="M67.555.273h62.49c.614 0 1.112.498 1.112 1.112v10.828c0 6.246-5.063 11.31-11.31 11.31H67.555a1.113 1.113 0 0 1-1.113-1.113V1.38c.003-.612.5-1.107 1.113-1.107z"/>
        <path fill="#FFF" d="M119.858 23.787H67.555a1.38 1.38 0 0 1-1.38-1.38V1.38c0-.762.617-1.38 1.38-1.38h62.49c.762 0 1.38.618 1.38 1.38v10.83c-.008 6.387-5.18 11.564-11.567 11.577zM67.555.537a.845.845 0 0 0-.843.843v21.027a.845.845 0 0 0 .843.843h52.303c6.091-.012 11.024-4.95 11.032-11.04V1.38a.845.845 0 0 0-.843-.843H67.555z"/>
        <path fill="#FFF" d="M76.79 19.92c-.516 0-1.029-.07-1.525-.207a5.155 5.155 0 0 1-1.438-.647 5.384 5.384 0 0 1-1.84-1.985 5.482 5.482 0 0 1-.655-2.496.166.166 0 0 1 .166-.169h3.377c.088.002.16.073.163.161 0 .308.096.608.273.86.139.192.31.359.504.493.255.168.552.263.857.273.314.017.628-.043.913-.175.186-.075.354-.187.494-.33.108-.115.2-.245.273-.384.061-.113.102-.236.12-.363.03-.189.03-.381 0-.57a1.17 1.17 0 0 0-.12-.374 1.497 1.497 0 0 0-.273-.384 1.89 1.89 0 0 0-.494-.322 4.784 4.784 0 0 0-.515-.196 20.161 20.161 0 0 1-.58-.197 26.254 26.254 0 0 1-1.14-.395 6.374 6.374 0 0 1-1.185-.592 4.786 4.786 0 0 1-2.204-4.478c.052-.594.22-1.17.494-1.7.254-.483.588-.92.988-1.292a4.73 4.73 0 0 1 1.314-.867 4.778 4.778 0 0 1 1.558-.385 5.138 5.138 0 0 1 1.688.153 4.795 4.795 0 0 1 2.66 1.647c.326.402.58.858.752 1.347.156.447.243.915.259 1.389a.166.166 0 0 1-.167.169H78.15a.164.164 0 0 1-.164-.145.698.698 0 0 0-.31-.545 2.258 2.258 0 0 0-.546-.257h-.038c-.037 0-.1-.01-.188-.032a1.064 1.064 0 0 0-.374 0c-.15.025-.295.077-.428.152a.86.86 0 0 0-.352.385.982.982 0 0 0-.065.733c.067.248.223.463.439.603.217.124.444.23.679.32.249.094.512.185.788.272.249.073.5.153.755.24s.513.19.775.308a5.155 5.155 0 0 1 3.074 4.76 5.084 5.084 0 0 1-.819 2.806 5.455 5.455 0 0 1-3.414 2.312 5.93 5.93 0 0 1-1.173.104zM126.267 10.6a6.595 6.595 0 0 1-.515 2.6 6.77 6.77 0 0 1-1.427 2.138 6.89 6.89 0 0 1-2.116 1.46 6.505 6.505 0 0 1-2.427.545.164.164 0 0 0-.161.163v2.242a.166.166 0 0 1-.166.167h-3.371a.166.166 0 0 1-.167-.167V3.99c0-.092.075-.166.167-.166h3.545a6.434 6.434 0 0 1 2.588.57c.79.356 1.507.854 2.117 1.47a6.77 6.77 0 0 1 1.426 2.138c.343.823.516 1.707.507 2.599zm-6.643 2.873a.164.164 0 0 0 .177.166c.338-.033.668-.125.974-.273a3.052 3.052 0 0 0 1.557-1.617 3.068 3.068 0 0 0-.625-3.289 3.17 3.17 0 0 0-.932-.66 2.896 2.896 0 0 0-.974-.273.164.164 0 0 0-.177.167v5.779zM104.446 3.826a7.79 7.79 0 0 1 3.14.636 8.277 8.277 0 0 1 2.56 1.72 8.065 8.065 0 0 1 1.73 2.556 8.056 8.056 0 0 1 0 6.273 8.062 8.062 0 0 1-1.73 2.555 8.27 8.27 0 0 1-2.56 1.721 8.03 8.03 0 0 1-6.273 0 8.045 8.045 0 0 1-4.271-4.276 8.062 8.062 0 0 1 0-6.273 8.048 8.048 0 0 1 4.27-4.276 7.792 7.792 0 0 1 3.134-.636zm0 12.388a4.22 4.22 0 0 0 1.689-.341 4.364 4.364 0 0 0 2.323-2.3 4.364 4.364 0 0 0 0-3.376 4.364 4.364 0 0 0-2.313-2.312 4.364 4.364 0 0 0-3.376 0 4.364 4.364 0 0 0-2.313 2.312 4.364 4.364 0 0 0 0 3.377 4.364 4.364 0 0 0 2.313 2.312 4.216 4.216 0 0 0 1.688.328h-.01z"/>
        <rect width="3.736" height="12.562" x="87.878" y="7.355" fill="#FFF" rx=".61"/>
        <rect width="9.867" height="3.736" x="84.813" y="3.824" fill="#FFF" rx=".61"/>
    </g>
</svg>
