<svg id="baseball" xmlns="http://www.w3.org/2000/svg" viewBox="0 0 56.7 56.7"><defs><style>.cls-1{fill:#fff;}</style></defs><title>horseracing</title><path class="cls-1" d="M41.3,10.2a2,2,0,0,0-.7.1c-1.7.2-1.6,2.4-1.6,2.4s-2.9-.1-4.3-.1a20.7,20.7,0,0,0-4.7.6c-.3.2-.3.8-.3.8s-1.2.6-1.4,1.1a2,2,0,0,0,.9,2.6c1.4.9,5.3,1.6,5.3,1.6v.2A14.28,14.28,0,0,1,33,21.3a5.54,5.54,0,0,1-1-.4c-.8-.4-2.7-1.7-3.4-2.1s-1.2.1-1.1.4S29.2,21,29.2,21s-6.6-.2-8.9.1-4.7,2.5-4.7,2.5-1.3.4-2.9,1a8.57,8.57,0,0,0-3.3,2.6,11.68,11.68,0,0,0-1,1.5,20.58,20.58,0,0,0-2.1-.3,4.13,4.13,0,0,0-.9.1,2.24,2.24,0,0,1,1.1.6.78.78,0,0,1,.3,1,8.51,8.51,0,0,1-3.1-1.7l.3.8-.5-.1a6.38,6.38,0,0,1-1.4-.8,1.48,1.48,0,0,1-.8-1.7L.9,27a1.5,1.5,0,0,0,0,1.9c-.4.1-.7.1-.9.4a3.77,3.77,0,0,1,1.2.4,17.65,17.65,0,0,1,1.9,1.8L2,31.3s.1.4,1.1.8a5.66,5.66,0,0,0,3,0,.68.68,0,0,1-.4.4l-1.1.3a2.29,2.29,0,0,0,.7.3,5.18,5.18,0,0,0,2.2-.2.69.69,0,0,0,.5-.4,10.18,10.18,0,0,0,1.9,0c1-.2,1.7-1.5,1.7-1.5l.2,1.1a2.07,2.07,0,0,1,.7-.8,3.73,3.73,0,0,0,1.7-1.8,5.84,5.84,0,0,0,0-2.3c0-.5-.1-1.8-.1-1.8l.8-.2V27A5.64,5.64,0,0,0,16,30.6c.6.6,2.3,1.6,2.3,1.7s.2.4,0,.9-.7.9-1.9,1.9-1.5,1.5-.6,2.4,3.6,3.7,4.6,4.7.9,1.2.8,1.3-.4.1-.8.1-1-.2-.9.1v2.2c0,.6,0,.5.6.5a2.45,2.45,0,0,0,1.6-.6,2.83,2.83,0,0,0,.9-2,5.54,5.54,0,0,0-.6-2.6c-.6-.7-3.5-3.6-3.3-4s1.9-1.9,1.9-1.9a4.3,4.3,0,0,1-.6,1.8c-.4.7-.2,1,1,1.6s3,1.8,3,1.8-1,.9-.5,1,1.8.9,2,.9a4.5,4.5,0,0,1,.8.2,9.05,9.05,0,0,1,1.1.6c-.5,0-.5.3-.3.7l.6,1.5a7.91,7.91,0,0,0,1.3-.5c.4-.2.3-.6.4-1s.1-.5.1-.5,1.6-.1,2.5-.1a3.44,3.44,0,0,0,1.9-.3,4.05,4.05,0,0,0,.8-1,7,7,0,0,1,1.4.3,4.78,4.78,0,0,0,1.9.2c.6-.1,3.2-1.3,4.3-1.7s.9-.6,1-1.3.3-.7-.2-1.2l-2.4-2.9a2,2,0,0,1-.1-.5c0-.2.4-.2,1.6-1.5s1.1-4,1.3-4.1a14.71,14.71,0,0,1,1.3-1.6A39.36,39.36,0,0,0,47,24.2c1.8.3,3.9.4,5.5-.7l.1.1a.83.83,0,0,0,.8-.1,4.2,4.2,0,0,0,.5.2c.3.1.6.6,1.1.7A2,2,0,0,0,56.7,23a1.28,1.28,0,0,0-.5-1.4c-.4-.2-.7-.7-1.3-1.1a15.3,15.3,0,0,1-1.8-1.8,15.3,15.3,0,0,0-1.3-1.6A4.14,4.14,0,0,0,50,16a1.54,1.54,0,0,0,.2-.8V13.7c0-.4-.1-.3-.4.2a2.71,2.71,0,0,1-.7.9,8.78,8.78,0,0,1-.7-.8c-.3-.4-.4-.6-.5-.1s-.1,1.6-.1,1.8a1,1,0,0,1-.1.4c-.2-.1-.5-.4-.9-.2-.8.2-1.7,1.2-2.7,2a15.2,15.2,0,0,0-2.2,1.8s-1.7-.4-2.2-.5-.6-.4-.7-1.1a2.2,2.2,0,0,1,.2-1.4,3.89,3.89,0,0,1,.6-1.3c.1,0,1.3.4,1.5.4s.4-.2.5-.5a2.23,2.23,0,0,1,.3-.5s.5.3.5,0V14a2.23,2.23,0,0,1,.9-.2c.5,0,.5-.4.3-.4a.7.7,0,0,1-.4-.2,6.85,6.85,0,0,0-.5-1.8c-.1-.7-.5-1.2-1.6-1.2Zm7.8,12,1.4.2a3.57,3.57,0,0,0,1.5-.2l.3.2a6.49,6.49,0,0,1-4.9.8,3.81,3.81,0,0,1,.5-.6,3.77,3.77,0,0,1,1.2-.4ZM25.4,30.7a12.31,12.31,0,0,0,4.7,3c2.9,1,4.2,1.3,4.2,1.3a13.49,13.49,0,0,1-.3,2,18.66,18.66,0,0,1-.7,2.2c-.2.8-.3,1.8-.5,2.3s-2.9.5-3.7.4h-.8a17.75,17.75,0,0,0-3.2-2.5,12.89,12.89,0,0,0-1.7-.9V36a12.12,12.12,0,0,0,1.4-2.6,8,8,0,0,0,.6-2.7Zm12.3,5.9s1.3.9,2.4,1.5,1.4.9,1.1,1.1a7,7,0,0,1-1.8,1.2,12.83,12.83,0,0,1-2.6.7c-.3,0-.4-.2-.4-.5a4,4,0,0,0-.7-.9Z"/></svg>